<svg width="100%" height="100%" id="svg" viewBox="0 0 1440 690" xmlns="http://www.w3.org/2000/svg" class="transition duration-300 ease-in-out delay-150"><defs><linearGradient id="gradient" x1="0%" y1="50%" x2="100%" y2="50%"><stop offset="5%" stop-color="#6afc41"></stop><stop offset="95%" stop-color="#1dd3b0"></stop></linearGradient></defs><path d="M 0,700 L 0,0 C 287,50.5 574,101 814,101 C 1054,101 1247,50.5 1440,0 L 1440,700 L 0,700 Z" stroke="none" stroke-width="0" fill="url(#gradient)" fill-opacity="0.265" class="transition-all duration-300 ease-in-out delay-150 path-0" transform="rotate(-180 720 350)"></path><defs><linearGradient id="gradient" x1="0%" y1="50%" x2="100%" y2="50%"><stop offset="5%" stop-color="#6afc41"></stop><stop offset="95%" stop-color="#1dd3b0"></stop></linearGradient></defs><path d="M 0,700 L 0,0 C 232.5,131.5 465,263 705,263 C 945,263 1192.5,131.5 1440,0 L 1440,700 L 0,700 Z" stroke="none" stroke-width="0" fill="url(#gradient)" fill-opacity="0.4" class="transition-all duration-300 ease-in-out delay-150 path-1" transform="rotate(-180 720 350)"></path><defs><linearGradient id="gradient" x1="0%" y1="50%" x2="100%" y2="50%"><stop offset="5%" stop-color="#6afc41"></stop><stop offset="95%" stop-color="#1dd3b0"></stop></linearGradient></defs><path d="M 0,700 L 0,0 C 229,179.5 458,359 698,359 C 938,359 1189,179.5 1440,0 L 1440,700 L 0,700 Z" stroke="none" stroke-width="0" fill="url(#gradient)" fill-opacity="0.53" class="transition-all duration-300 ease-in-out delay-150 path-2" transform="rotate(-180 720 350)"></path><defs><linearGradient id="gradient" x1="0%" y1="50%" x2="100%" y2="50%"><stop offset="5%" stop-color="#6afc41"></stop><stop offset="95%" stop-color="#1dd3b0"></stop></linearGradient></defs><path d="M 0,700 L 0,0 C 275.5,266 551,532 791,532 C 1031,532 1235.5,266 1440,0 L 1440,700 L 0,700 Z" stroke="none" stroke-width="0" fill="url(#gradient)" fill-opacity="1" class="transition-all duration-300 ease-in-out delay-150 path-3" transform="rotate(-180 720 350)"></path></svg>