<svg width="100%" height="100%" id="svg" viewBox="0 0 1440 390" xmlns="http://www.w3.org/2000/svg" class="transition duration-300 ease-in-out delay-150"><defs><linearGradient id="gradient" x1="65%" y1="2%" x2="35%" y2="98%"><stop offset="5%" stop-color="#034078"></stop><stop offset="95%" stop-color="#1282a2"></stop></linearGradient></defs><path d="M 0,400 L 0,300 C 70.61244019138758,300.0574162679426 141.22488038277515,300.11483253588517 250,296 C 358.77511961722485,291.88516746411483 505.7129186602871,283.5980861244019 610,248 C 714.2870813397129,212.4019138755981 775.9234449760766,149.49282296650716 861,118 C 946.0765550239234,86.50717703349282 1054.5933014354068,86.43062200956939 1155,72 C 1255.4066985645932,57.56937799043062 1347.7033492822966,28.78468899521531 1440,0 L 1440,400 L 0,400 Z" stroke="none" stroke-width="0" fill="url(#gradient)" fill-opacity="0.4" class="transition-all duration-300 ease-in-out delay-150 path-0"></path><defs><linearGradient id="gradient" x1="65%" y1="2%" x2="35%" y2="98%"><stop offset="5%" stop-color="#034078"></stop><stop offset="95%" stop-color="#1282a2"></stop></linearGradient></defs><path d="M 0,400 L 0,400 C 66.88038277511961,397.6459330143541 133.76076555023923,395.29186602870817 236,388 C 338.2392344497608,380.70813397129183 475.8373205741626,368.47846889952154 586,337 C 696.1626794258374,305.52153110047846 778.88995215311,254.79425837320574 874,232 C 969.11004784689,209.20574162679426 1076.6028708133972,214.3444976076555 1173,197 C 1269.3971291866028,179.6555023923445 1354.6985645933014,139.82775119617224 1440,100 L 1440,400 L 0,400 Z" stroke="none" stroke-width="0" fill="url(#gradient)" fill-opacity="0.53" class="transition-all duration-300 ease-in-out delay-150 path-1"></path><defs><linearGradient id="gradient" x1="65%" y1="2%" x2="35%" y2="98%"><stop offset="5%" stop-color="#034078"></stop><stop offset="95%" stop-color="#1282a2"></stop></linearGradient></defs><path d="M 0,400 L 0,500 C 101.0622009569378,519.1196172248804 202.1244019138756,538.2392344497607 302,515 C 401.8755980861244,491.7607655502392 500.5645933014355,426.1626794258373 603,394 C 705.4354066985645,361.8373205741627 811.6172248803827,363.11004784689 888,357 C 964.3827751196173,350.88995215311 1010.9665071770337,337.39712918660285 1098,310 C 1185.0334928229663,282.60287081339715 1312.5167464114832,241.30143540669857 1440,200 L 1440,400 L 0,400 Z" stroke="none" stroke-width="0" fill="url(#gradient)" fill-opacity="1" class="transition-all duration-300 ease-in-out delay-150 path-2"></path></svg>